# xmcd CD database file
#
# Track frame offsets:
#	150
#	23887
#	48787
#	74287
#	101925
#	127687
#	148837
#	174450
#	200962
#	223687
#	249037
#	270862
#
# Disc length: 3938 seconds
#
# Revision: 0
# Processed by: cddbd v1.5.1PL0 Copyright (c) Steve Scherf et al.
# Submitted via: CDex 1.51
#
DISCID=aa0f600c
DTITLE=Jan Iundgren Trio With Herb Geller - Stockholm Get-together
DYEAR=1994
DGENRE=Jazz
TTITLE0=Conception
TTITLE1=Born To Be Blue
TTITLE2=Jan's Idea
TTITLE3=When Your're Not Here
TTITLE4=Bankin' On Bank
TTITLE5=Emily
TTITLE6=Triste
TTITLE7=Easy To Love
TTITLE8=Tickletoe
TTITLE9='Round Midnight
TTITLE10=Landscape
TTITLE11=Blues For Jordi
EXTD=YEAR: 1994
EXTT0=
EXTT1=
EXTT2=
EXTT3=
EXTT4=
EXTT5=
EXTT6=
EXTT7=
EXTT8=
EXTT9=
EXTT10=
EXTT11=
PLAYORDER=
